HIERARCHY
ROOT hip
{
	OFFSET 0.000000 0.000000 0.000000
	CHANNELS 6 Xposition Yposition Zposition Xrotation Zrotation Yrotation 
	JOINT abdomen
	{
		OFFSET 0.000000 3.422050 0.000000
		CHANNELS 3 Xrotation Zrotation Yrotation 
		JOINT chest
		{
			OFFSET 0.000000 8.486693 -0.684411
			CHANNELS 3 Xrotation Zrotation Yrotation 
			JOINT neck
			{
				OFFSET 0.000000 10.266162 -0.273764
				CHANNELS 3 Xrotation Zrotation Yrotation 
				JOINT head
				{
					OFFSET 0.000000 3.148285 0.000000
					CHANNELS 3 Xrotation Zrotation Yrotation 
					End Site
					{
						OFFSET 0.000000 3.148289 0.000000
					}
				}
			}
			JOINT lCollar
			{
				OFFSET 3.422053 6.707223 -0.821293
				CHANNELS 3 Yrotation Zrotation Xrotation 
				JOINT lShldr
				{
					OFFSET 3.285171 0.000000 0.000000
					CHANNELS 3 Zrotation Yrotation Xrotation 
					JOINT lForeArm
					{
						OFFSET 10.129278 0.000000 0.000000
						CHANNELS 3 Yrotation Zrotation Xrotation 
						JOINT lHand
						{
							OFFSET 8.486692 0.000000 0.000000
							CHANNELS 3 Zrotation Yrotation Xrotation 
							End Site
							{
								OFFSET 4.106464 0.000000 0.000000
							}
						}
					}
				}
			}
			JOINT rCollar
			{
				OFFSET -3.558935 6.707223 -0.821293
				CHANNELS 3 Yrotation Zrotation Xrotation 
				JOINT rShldr
				{
					OFFSET -3.148289 0.000000 0.000000
					CHANNELS 3 Zrotation Yrotation Xrotation 
					JOINT rForeArm
					{
						OFFSET -10.266159 0.000000 0.000000
						CHANNELS 3 Yrotation Zrotation Xrotation 
						JOINT rHand
						{
							OFFSET -8.349810 0.000000 0.000000
							CHANNELS 3 Zrotation Yrotation Xrotation 
							End Site
							{
								OFFSET -4.106464 0.000000 0.000000
							}
						}
					}
				}
			}
		}
	}
	JOINT lThigh
	{
		OFFSET 5.338403 -1.642589 1.368821
		CHANNELS 3 Xrotation Zrotation Yrotation 
		JOINT lShin
		{
			OFFSET -2.053232 -20.121670 0.000000
			CHANNELS 3 Xrotation Zrotation Yrotation 
			JOINT lFoot
			{
				OFFSET 0.000000 -19.300380 -1.231939
				CHANNELS 3 Xrotation Yrotation Zrotation 
				End Site
				{
					OFFSET 0.000000 -2.463878 4.653993
				}
			}
		}
	}
	JOINT rThigh
	{
		OFFSET -5.338403 -1.642589 1.368821
		CHANNELS 3 Xrotation Zrotation Yrotation 
		JOINT rShin
		{
			OFFSET 2.053232 -20.121670 0.000000
			CHANNELS 3 Xrotation Zrotation Yrotation 
			JOINT rFoot
			{
				OFFSET 0.000000 -19.300380 -1.231939
				CHANNELS 3 Xrotation Yrotation Zrotation 
				End Site
				{
					OFFSET 0.000000 -2.463878 4.653993
				}
			}
		}
	}
}
MOTION
Frames: 14
Frame Time: 0.049989
-18.001394 9.997749 6.995714 60.996773 0.000000 -180.000000 -15.361384 -2.212725 -0.489980 34.980492 -1.296669 0.859807 -28.982939 0.000000 0.000000 -20.001711 0.000000 0.000000 -26.796232 -14.164086 14.828701 -52.256531 43.342953 -11.817735 -78.608582 5.551011 -1.079043 -10.285832 -8.283073 -4.638607 27.043783 13.213445 15.116375 53.113003 -43.665825 -12.331460 78.604218 -5.553678 -1.077038 10.038514 8.238814 -4.715350 -18.147217 34.121204 40.220665 73.924675 40.138565 -32.066734 21.953131 26.441694 -22.513208 -17.927479 -35.080963 -39.845879 72.316681 -39.785057 32.943844 22.953873 -25.180716 23.058792 
-18.001394 9.997749 6.995714 60.996773 0.000000 -180.000000 -14.961589 -2.212735 -0.490000 33.915371 -1.296702 0.859766 -27.959997 0.000000 0.000000 -20.001711 0.000000 0.000000 -26.292152 -14.419139 15.046407 -51.989300 43.270557 -11.660808 -78.608582 5.551011 -1.079043 -10.721830 -8.079123 -4.287602 26.523851 13.535253 15.308780 52.782005 -43.572422 -12.135258 78.604218 -5.553678 -1.077038 10.491940 8.038733 -4.358660 -18.108467 34.950138 42.039646 73.912216 40.703373 -33.796730 22.093929 27.274807 -21.785969 -17.891598 -35.916527 -41.603981 72.290321 -40.273396 34.499691 23.053015 -25.832136 22.262928 
-18.001394 9.997749 6.995714 60.996773 0.000000 -180.000000 -14.561743 -2.212746 -0.490021 32.849236 -1.296737 0.859726 -26.933674 0.000000 0.000000 -20.001711 0.000000 0.000000 -25.786366 -14.672392 15.266733 -51.722645 43.197624 -11.504522 -78.608582 5.551011 -1.079043 -11.156452 -7.872487 -3.938262 26.001945 13.855444 15.504504 52.451965 -43.478207 -11.940105 78.604218 -5.553678 -1.077038 10.943999 7.835814 -4.003660 -18.036615 35.780392 43.884235 73.876854 41.269207 -35.546642 22.223944 28.110384 -21.054647 -17.823086 -36.753414 -43.387321 72.246132 -40.762058 36.070663 23.142666 -26.485348 21.463091 
-18.001394 9.997749 6.995714 60.996773 0.000000 -180.000000 -14.161856 -2.212756 -0.490042 31.782267 -1.296772 0.859687 -25.904104 0.000000 0.000000 -20.001711 0.000000 0.000000 -25.278872 -14.923800 15.489669 -51.456585 43.124172 -11.348891 -78.608582 5.551011 -1.079043 -11.589673 -7.663190 -3.590611 25.478048 14.173963 15.703551 52.122856 -43.383171 -11.745988 78.604218 -5.553678 -1.077038 11.394666 7.630085 -3.650377 -17.930412 36.610565 45.754890 73.817848 41.835239 -37.316448 22.342903 28.948135 -20.318995 -17.720667 -37.590324 -45.196457 72.183662 -41.250481 37.656677 23.222652 -27.140152 20.659159 
-18.001394 9.997749 6.995714 60.996773 0.000000 -180.000000 -13.761932 -2.212766 -0.490063 30.714651 -1.296807 0.859648 -24.871449 0.000000 0.000000 -20.001711 0.000000 0.000000 -24.769684 -15.173326 15.715201 -51.191113 43.050194 -11.193913 -78.608582 5.551011 -1.079043 -12.021466 -7.451263 -3.244679 24.952175 14.490767 15.905925 51.794708 -43.287334 -11.552931 78.604218 -5.553678 -1.077038 11.843903 7.421574 -3.298844 -17.788631 37.439236 47.652042 73.734489 42.400627 -39.106083 22.450512 29.787764 -19.578732 -17.583096 -38.425907 -47.031963 72.102524 -41.738102 39.257664 23.292755 -27.796288 19.850969 
-18.001394 9.997749 6.995714 60.996773 0.000000 -180.000000 -13.361983 -2.212776 -0.490084 29.646566 -1.296843 0.859610 -23.835863 0.000000 0.000000 -20.001711 0.000000 0.000000 -24.258818 -15.420933 15.943321 -50.926220 42.975685 -11.039585 -78.608582 5.551011 -1.079043 -12.451803 -7.236737 -2.900491 24.424305 14.805789 16.111609 51.467499 -43.190681 -11.360924 78.604218 -5.553678 -1.077038 12.291687 7.210315 -2.949092 -17.610088 38.264923 49.576141 73.626129 42.964504 -40.915470 22.546473 30.628965 -18.833569 -17.409134 -39.258755 -48.894386 72.002289 -42.224312 40.873482 23.352779 -28.453518 19.038374 
-18.001394 9.997749 6.995714 60.996773 0.000000 -180.000000 -12.962021 -2.212785 -0.490105 28.578213 -1.296881 0.859573 -22.797497 0.000000 0.000000 -19.195044 0.000000 0.000000 -23.746286 -15.666588 16.174017 -50.661930 42.900658 -10.885917 -78.608582 5.551011 -1.079043 -12.880664 -7.019644 -2.558074 23.894457 15.118995 16.320618 51.141254 -43.093231 -11.169978 78.604218 -5.553678 -1.077038 12.737992 6.996342 -2.601150 -17.393663 39.086132 51.527592 73.492157 43.526016 -42.744545 22.630484 31.471439 -18.083214 -17.197584 -40.087433 -50.784279 71.882584 -42.708519 42.504028 23.402529 -29.111622 18.221220 
-18.001394 9.997749 6.995714 60.996773 0.000000 -180.000000 -12.562055 -2.212796 -0.490126 27.509764 -1.296919 0.859536 -21.756512 0.000000 0.000000 -18.386911 0.000000 0.000000 -23.232100 -15.910246 16.407274 -50.398228 42.825104 -10.732905 -78.608582 5.551011 -1.079043 -13.308021 -6.800010 -2.217452 23.362623 15.430325 16.532938 50.815975 -42.995003 -10.980098 78.604218 -5.553678 -1.077038 13.182790 6.779684 -2.255045 -17.138264 39.901295 53.506775 73.332001 44.084236 -44.593121 22.702209 32.314880 -17.327341 -16.947285 -40.910480 -52.702168 71.743034 -43.190079 44.149120 23.441774 -29.770323 17.399326 
-18.001394 9.997749 6.995714 60.996773 0.000000 -180.000000 -12.162094 -2.212805 -0.490147 26.441401 -1.296957 0.859500 -20.713076 0.000000 0.000000 -17.577389 0.000000 0.000000 -22.716269 -16.151869 16.643072 -50.135132 42.749046 -10.580561 -78.608582 5.551011 -1.079043 -13.733854 -6.577873 -1.878652 22.828800 15.739724 16.748564 50.491665 -42.895973 -10.791287 78.604218 -5.553678 -1.077038 13.626050 6.560375 -1.910807 -16.842894 40.708885 55.514042 73.145111 44.638256 -46.461014 22.761316 33.158958 -16.565615 -16.657158 -41.726421 -54.648571 71.583389 -43.668419 45.808598 23.470324 -30.429394 16.572533 
-18.001394 9.997749 6.995714 60.996773 0.000000 -180.000000 -11.762147 -2.212815 -0.490168 25.373323 -1.296996 0.859465 -19.667349 0.000000 0.000000 -16.766550 0.000000 0.000000 -22.198807 -16.391418 16.881399 -49.872639 42.672470 -10.428881 -78.608582 5.551011 -1.079043 -14.158141 -6.353260 -1.541696 22.292999 16.047148 16.967495 50.168343 -42.796188 -10.603554 78.604218 -5.553678 -1.077038 14.067752 6.338449 -1.568461 -16.506620 41.507278 57.549671 72.931122 45.187222 -48.348068 22.807447 34.003365 -15.797688 -16.326145 -42.533718 -56.623943 71.403328 -44.142899 47.482258 23.487953 -31.088575 15.740658 
-18.001394 9.997749 6.995714 60.996773 0.000000 -180.000000 -11.362224 -2.212824 -0.490189 24.305704 -1.297036 0.859430 -18.619503 0.000000 0.000000 -15.954480 0.000000 0.000000 -21.679739 -16.628868 17.122246 -49.610741 42.595390 -10.277865 -78.608582 5.551011 -1.079043 -14.580855 -6.126204 -1.206606 21.755226 16.352545 17.189722 49.845978 -42.695614 -10.416891 78.604218 -5.553678 -1.077038 14.507872 6.113941 -1.228035 -16.128635 42.294903 59.613892 72.689552 45.730148 -50.253960 22.840233 34.847778 -15.023184 -15.953311 -43.330849 -58.628670 71.202599 -44.612869 49.169834 23.494463 -31.747639 14.903527 
-18.001394 9.997749 6.995714 60.996773 0.000000 -180.000000 -10.962334 -2.212833 -0.490211 23.238739 -1.297076 0.859397 -17.569696 0.000000 0.000000 -15.141253 0.000000 0.000000 -21.159075 -16.864170 17.365591 -49.349476 42.517818 -10.127529 -78.608582 5.551011 -1.079043 -15.001985 -5.896743 -0.873406 21.215467 16.655859 17.415236 49.524601 -42.594276 -10.231312 78.604218 -5.553678 -1.077038 14.946379 5.886881 -0.889552 -15.708209 43.070156 61.706841 72.420174 46.266182 -52.178406 22.859310 35.691883 -14.241729 -15.537787 -44.116295 -60.663158 70.981094 -45.077770 50.871117 23.489613 -32.406300 14.060937 
-18.001394 9.997749 6.995714 60.996773 0.000000 -180.000000 -10.562490 -2.212842 -0.490232 22.172606 -1.297117 0.859364 -16.518114 0.000000 0.000000 -14.326952 0.000000 0.000000 -20.636829 -17.097292 17.611406 -49.088791 42.439724 -9.977858 -78.608582 5.551011 -1.079043 -15.421502 -5.664904 -0.542116 20.673742 16.957045 17.644026 49.204216 -42.492191 -10.046822 78.604218 -5.553678 -1.077038 15.383262 5.657311 -0.553037 -15.244772 43.831444 63.828568 72.122696 46.794369 -54.120995 22.864258 36.535343 -13.452904 -15.078826 -44.888481 -62.727596 70.738602 -45.536938 52.585758 23.473190 -33.064320 13.212700 
-18.001394 9.997749 6.995714 60.996773 0.000000 -180.000000 -10.162700 -2.212851 -0.490254 21.107491 -1.297159 0.859332 -15.464920 0.000000 0.000000 -13.511651 0.000000 0.000000 -20.113018 -17.328194 17.859680 -48.828732 42.361141 -9.828862 -78.608582 5.551011 -1.079043 -15.839394 -5.430725 -0.212756 20.130054 17.256050 17.876085 48.884804 -42.389343 -9.863412 78.604218 -5.553678 -1.077038 15.818493 5.425263 -0.218512 -14.737871 44.577194 65.979042 71.796974 47.313839 -56.081337 22.854677 37.377838 -12.656290 -14.575807 -45.645908 -64.822220 70.475044 -45.989769 54.313431 23.444965 -33.721432 12.358607 
